<?xml version="1.0" standalone="no"?>
<!DOCTYPE svg PUBLIC "-//W3C//DTD SVG 20010904//EN"
 "http://www.w3.org/TR/2001/REC-SVG-20010904/DTD/svg10.dtd">
<svg version="1.0" xmlns="http://www.w3.org/2000/svg"
 width="406.000000pt" height="583.000000pt" viewBox="0 0 406.000000 583.000000"
 preserveAspectRatio="xMidYMid meet">

<g transform="translate(0.000000,583.000000) scale(0.100000,-0.100000)"
fill="#000000" stroke="none">
<path d="M0 2915 l0 -2915 2030 0 2030 0 0 2915 0 2915 -2030 0 -2030 0 0
-2915z m2390 1740 c0 -190 2 -345 5 -345 3 0 101 43 217 96 117 53 221 98 231
101 17 5 55 -9 192 -72 39 -17 170 -76 293 -131 l222 -98 -2 -515 c-3 -445 -5
-515 -18 -522 -8 -5 -114 -52 -235 -105 -121 -53 -224 -100 -229 -104 -9 -9
20 -23 301 -145 l183 -80 0 -521 0 -521 -82 -38 c-46 -21 -87 -38 -93 -39 -5
-1 -28 -11 -50 -23 -22 -11 -114 -53 -205 -93 -91 -39 -186 -83 -212 -97 l-48
-24 0 742 c0 408 -1 744 -3 745 -2 2 -316 -135 -414 -181 l-53 -25 0 -292 c-1
-481 -3 -576 -11 -590 -5 -7 -9 -8 -9 -3 0 6 -5 3 -11 -5 -9 -12 -9 -11 -4 5
14 39 17 61 7 47 -5 -8 -13 -14 -18 -14 -18 -1 -34 -10 -34 -20 0 -7 5 -6 13
1 18 14 30 2 16 -15 -8 -10 -5 -15 14 -19 37 -10 42 -51 11 -100 -24 -39 -24
-39 -1 -12 l23 27 -1 -117 c-1 -74 -7 -128 -15 -146 -14 -29 -5 -52 10 -27 18
28 11 -12 -9 -57 -12 -24 -15 -43 -10 -45 6 -2 0 -16 -12 -32 l-23 -29 27 17
c14 10 28 25 30 34 3 9 2 1 0 -18 -3 -19 -4 -45 -4 -58 1 -13 -3 -20 -9 -17
-13 8 -9 -17 4 -26 5 -4 4 -20 -2 -37 -8 -24 -8 -30 2 -26 11 4 13 -17 12 -95
0 -56 -2 -101 -3 -101 -1 0 -46 21 -100 46 -54 25 -120 55 -148 66 -66 28 -72
34 -52 56 9 10 17 22 17 27 0 4 -11 -5 -24 -20 -22 -25 -27 -27 -42 -14 -9 8
-20 14 -23 14 -3 0 -5 6 -4 14 1 9 -2 10 -9 3 -12 -12 -68 4 -68 20 0 5 -4 7
-9 4 -11 -7 -71 25 -71 37 0 4 7 7 16 5 10 -2 19 3 22 11 3 9 -1 11 -17 6 -17
-5 -21 -3 -18 14 2 11 6 23 9 27 4 3 4 12 1 20 -5 13 8 19 31 15 5 -1 13 4 17
11 5 7 14 13 20 13 7 0 14 6 17 13 2 7 -5 12 -16 12 -11 0 -22 9 -25 20 -3 11
-14 20 -25 20 -15 0 -18 -5 -15 -27 4 -27 4 -27 -11 -9 -18 22 -21 46 -6 46 5
0 9 3 9 7 -1 5 -1 15 1 23 1 11 3 10 9 -4 7 -18 8 -18 26 0 10 11 23 19 29 19
6 1 10 7 8 15 -1 10 2 9 12 -4 14 -18 15 -18 13 3 -1 11 -5 21 -9 21 -4 0 -5
7 -2 15 4 8 1 15 -5 15 -6 0 -11 -4 -11 -10 0 -5 -7 -7 -15 -4 -21 8 -19 36 3
32 14 -2 16 3 13 27 -1 16 -9 38 -16 48 -8 11 -11 25 -8 33 7 19 -22 28 -44
15 -15 -9 -13 -10 10 -5 17 4 27 2 27 -5 0 -10 -21 -15 -36 -8 -3 1 -11 -8
-17 -20 -7 -12 -16 -22 -22 -22 -5 0 -11 -4 -13 -10 -6 -17 13 -13 38 9 27 24
31 25 24 6 -5 -13 -49 -39 -69 -40 -13 -1 -14 -55 -1 -63 5 -4 6 -1 1 7 -5 9
-4 11 3 6 7 -4 12 -16 12 -27 0 -16 4 -19 23 -13 22 7 22 6 3 -15 -11 -12 -26
-20 -34 -19 -8 2 -17 -3 -20 -11 -3 -8 0 -11 7 -7 6 4 11 2 11 -3 0 -6 -6 -11
-14 -11 -8 0 -21 -9 -29 -20 -8 -11 -17 -17 -20 -13 -4 3 -7 -3 -7 -15 0 -12
-4 -22 -10 -22 -18 0 -11 -16 8 -17 29 -3 98 -19 110 -27 7 -4 10 -12 6 -17
-4 -7 -10 -6 -18 0 -8 7 -12 4 -13 -10 -1 -10 2 -19 6 -19 4 0 8 -7 8 -15 0
-17 -13 -20 -22 -5 -3 5 -12 10 -18 10 -7 0 -6 -4 3 -11 13 -9 13 -10 0 -6 -8
2 -15 15 -15 30 1 14 -3 23 -7 21 -4 -3 -8 -12 -8 -20 0 -16 -9 -18 -29 -5
-16 10 -6 31 15 31 15 0 19 16 6 24 -11 7 -27 -6 -37 -29 -7 -17 -9 -15 -16
15 -11 47 -9 180 3 204 14 25 17 67 6 60 -5 -3 -7 -12 -4 -20 3 -8 1 -14 -4
-14 -21 0 1 66 28 86 13 9 14 15 4 26 -6 8 -8 18 -4 22 4 4 2 7 -3 6 -25 -5
-34 2 -33 29 1 15 -2 33 -6 40 -4 6 -3 11 2 11 5 0 7 14 4 30 -3 20 0 30 9 30
10 0 10 3 1 12 -7 7 -12 37 -12 68 0 44 4 58 20 68 11 7 20 17 20 24 0 6 -9 3
-20 -7 -20 -18 -20 -17 -20 18 0 23 5 37 13 37 8 0 7 4 -3 11 -11 8 -12 12 -2
16 6 2 12 9 12 14 0 6 -4 7 -10 4 -6 -4 -10 15 -9 47 2 449 -4 798 -15 798
-13 0 -367 -157 -378 -168 -4 -4 -8 -260 -9 -569 -1 -371 -5 -563 -11 -563 -7
0 -7 -5 0 -13 12 -14 11 -95 -1 -114 -4 -6 -1 -14 5 -17 7 -3 2 -3 -12 0 -14
4 -27 9 -30 13 -3 3 -9 6 -15 7 -20 1 -75 26 -75 34 0 4 -10 11 -22 15 -14 4
-18 8 -10 12 6 2 9 10 5 16 -3 7 4 3 17 -8 13 -11 20 -14 15 -6 -6 11 -4 13 8
8 12 -5 17 -1 17 12 0 14 -5 18 -20 14 -11 -3 -28 1 -38 8 -9 7 -14 10 -10 5
11 -13 -10 -46 -29 -46 -26 0 -135 53 -159 77 -13 13 -19 23 -13 23 6 0 7 5 3
11 -5 8 -10 6 -16 -5 -5 -9 -16 -16 -25 -16 -12 0 -13 3 -4 14 9 11 8 15 -4
20 -9 3 -13 2 -10 -3 18 -30 -56 -6 -155 48 -22 13 -62 29 -88 36 -22 6 -23
10 -21 96 2 49 6 89 9 89 4 0 7 16 6 35 0 19 -4 35 -8 35 -3 0 -7 510 -8 1133
l-1 1133 58 24 c32 13 90 38 128 56 39 17 138 62 220 99 83 37 178 80 213 96
35 16 68 29 73 29 5 0 10 -289 11 -723 l3 -724 185 83 c102 45 191 88 198 94
10 9 12 159 12 723 0 392 0 717 0 724 0 6 12 15 28 21 15 5 63 26 107 46 203
93 541 244 548 245 4 1 7 -154 7 -344z m-661 -3104 c0 -10 -2 -11 -6 -3 -2 6
-9 10 -14 6 -5 -3 -9 2 -9 10 0 10 6 13 15 10 8 -4 15 -14 14 -23z m167 -63
c5 -7 3 -8 -6 -3 -7 4 -16 2 -21 -6 -7 -11 -9 -10 -9 4 0 19 25 23 36 5z m-46
-28 c0 -5 -4 -10 -10 -10 -5 0 -10 5 -10 10 0 6 5 10 10 10 6 0 10 -4 10 -10z
m40 -40 c0 -5 -4 -10 -10 -10 -5 0 -10 5 -10 10 0 6 5 10 10 10 6 0 10 -4 10
-10z m-73 -162 c-6 -3 -19 -2 -29 3 -10 6 -23 7 -28 4 -13 -8 -13 1 1 26 5 11
14 17 20 14 5 -4 9 -1 9 5 0 6 5 8 10 5 6 -3 10 0 11 7 1 7 5 -3 9 -22 6 -23
5 -37 -3 -42z m93 16 c0 -8 -4 -14 -10 -14 -5 0 -10 4 -10 9 0 5 -3 18 -7 28
-6 16 -5 16 10 4 9 -7 17 -20 17 -27z m-30 -13 c0 -5 -6 -11 -13 -14 -8 -3
-14 1 -14 9 0 8 6 14 14 14 7 0 13 -4 13 -9z"/>
<path d="M2745 4076 c-97 -42 -145 -63 -287 -128 l-68 -31 0 -433 0 -433 43
18 c51 23 151 68 192 86 17 8 75 34 130 59 l100 45 2 431 c1 236 -1 430 -5
430 -4 0 -52 -20 -107 -44z"/>
<path d="M1770 2160 c-8 -5 -10 -10 -5 -10 6 0 17 5 25 10 8 5 11 10 5 10 -5
0 -17 -5 -25 -10z"/>
<path d="M1846 2150 c-11 -3 -15 -9 -10 -13 10 -6 42 9 34 16 -3 3 -14 1 -24
-3z"/>
<path d="M1802 2099 c-19 -30 -8 -34 12 -4 9 14 13 25 9 25 -5 0 -14 -9 -21
-21z"/>
<path d="M1970 2115 c0 -5 5 -17 10 -25 5 -8 10 -10 10 -5 0 6 -5 17 -10 25
-5 8 -10 11 -10 5z"/>
<path d="M2070 2091 c0 -5 5 -13 10 -16 6 -3 10 -2 10 4 0 5 -4 13 -10 16 -5
3 -10 2 -10 -4z"/>
<path d="M2165 2090 c-3 -5 -2 -10 4 -10 5 0 13 5 16 10 3 6 2 10 -4 10 -5 0
-13 -4 -16 -10z"/>
<path d="M2000 2087 c0 -3 10 -15 22 -27 20 -19 21 -20 3 -20 -18 0 -17 -2 4
-16 17 -13 25 -14 34 -4 9 9 8 11 -3 8 -8 -2 -14 2 -13 8 1 6 -9 22 -22 34
-14 13 -25 21 -25 17z"/>
<path d="M1906 2062 c-2 -4 -1 -14 5 -22 7 -13 9 -13 9 -1 0 8 3 11 7 8 3 -4
-2 -17 -13 -29 -10 -12 -14 -18 -8 -15 7 4 15 0 18 -9 3 -8 10 -13 15 -10 5 3
7 -3 4 -14 -6 -22 3 -25 27 -10 12 8 11 12 -6 32 -12 13 -24 35 -28 51 -6 26
-20 35 -30 19z"/>
<path d="M2210 2061 c0 -6 5 -13 10 -16 6 -3 10 1 10 9 0 9 -4 16 -10 16 -5 0
-10 -4 -10 -9z"/>
<path d="M2243 2054 c0 -8 6 -14 14 -14 7 0 13 4 13 9 0 5 -6 11 -13 14 -8 3
-14 -1 -14 -9z"/>
<path d="M1860 2050 c-12 -8 -12 -10 3 -16 21 -8 35 2 21 16 -5 5 -15 6 -24 0z"/>
<path d="M2118 2043 c7 -3 16 -2 19 1 4 3 -2 6 -13 5 -11 0 -14 -3 -6 -6z"/>
<path d="M2283 2030 c-1 -10 4 -17 12 -16 24 4 28 14 8 24 -15 9 -19 7 -20 -8z"/>
<path d="M1758 2008 c-10 -10 -13 -18 -7 -18 5 0 8 -4 4 -9 -3 -5 -1 -13 5
-16 6 -4 9 -3 8 2 -1 4 2 18 6 31 10 30 5 33 -16 10z"/>
<path d="M1830 1975 c-1 -11 -4 -15 -6 -8 -3 7 -12 9 -20 6 -13 -5 -13 -7 -2
-14 11 -7 11 -9 -1 -9 -11 0 -11 -3 0 -16 12 -15 11 -16 -10 -9 -16 5 -21 4
-17 -4 4 -6 3 -11 -3 -11 -6 0 -8 -7 -4 -15 6 -18 29 -14 26 4 -2 6 2 11 8 11
12 0 4 -29 -23 -83 -11 -22 -17 -41 -14 -44 6 -6 74 48 75 60 1 5 -3 6 -8 2
-5 -3 -13 0 -17 6 -4 8 -3 9 4 5 7 -4 12 -2 12 4 0 7 7 10 15 6 9 -3 19 3 25
14 7 14 7 20 0 20 -5 0 -10 -6 -10 -12 0 -9 -3 -8 -9 2 -12 18 -5 30 20 30 21
0 26 16 7 23 -8 3 -6 6 4 6 12 1 15 6 11 18 -4 11 -3 14 5 9 7 -4 12 -2 12 3
0 16 -16 13 -30 -4 -17 -20 -37 -19 -43 3 -4 14 -5 14 -7 -3z"/>
<path d="M2260 1958 c0 -3 9 -15 20 -28 14 -16 25 -20 37 -15 17 8 16 8 -2 13
-11 2 -28 11 -37 20 -10 8 -18 13 -18 10z"/>
<path d="M1960 1935 c0 -8 4 -15 8 -15 4 0 8 -10 9 -21 2 -29 12 -36 24 -19 8
13 11 13 22 -2 7 -9 26 -19 43 -23 27 -5 27 -5 5 5 -25 11 -82 56 -81 65 1 20
-2 25 -15 25 -8 0 -15 -7 -15 -15z"/>
<path d="M2011 1946 c2 -2 15 -9 29 -15 24 -11 24 -11 6 3 -16 13 -49 24 -35
12z"/>
<path d="M637 1923 c-4 -3 -7 -15 -7 -26 0 -25 13 -14 15 13 2 22 1 23 -8 13z"/>
<path d="M1940 1883 c0 -4 5 -15 10 -23 8 -13 10 -13 10 2 0 9 -4 20 -10 23
-5 3 -10 3 -10 -2z"/>
<path d="M1742 1840 c-12 -12 -22 -23 -22 -26 0 -7 38 15 45 27 13 20 -1 19
-23 -1z"/>
<path d="M2000 1842 c6 -13 14 -21 18 -18 3 4 -2 14 -12 24 -18 16 -18 16 -6
-6z"/>
<path d="M870 1830 c-11 -7 -11 -10 -2 -10 8 0 10 -5 6 -12 -4 -7 -3 -9 1 -5
7 6 17 37 12 37 -1 0 -9 -5 -17 -10z"/>
<path d="M673 1813 c9 -9 19 -14 23 -11 10 10 -6 28 -24 28 -15 0 -15 -1 1
-17z"/>
<path d="M744 1814 c4 -12 2 -15 -9 -10 -8 3 -15 2 -15 -3 0 -13 30 -35 37
-27 3 3 0 6 -7 6 -11 0 -11 3 -2 12 10 10 15 10 22 -2 6 -9 10 -10 10 -3 0 12
-27 43 -37 43 -3 0 -2 -7 1 -16z"/>
<path d="M3050 1816 c0 -2 8 -10 18 -17 15 -13 16 -12 3 4 -13 16 -21 21 -21
13z"/>
<path d="M825 1799 c-16 -4 -22 -7 -12 -8 10 0 16 -5 13 -9 -3 -5 1 -9 9 -9 8
0 17 7 20 15 7 19 6 20 -30 11z"/>
<path d="M901 1783 c7 -10 15 -20 16 -22 2 -2 3 3 3 11 0 9 -7 19 -16 22 -15
6 -15 4 -3 -11z"/>
<path d="M2275 1770 c3 -5 11 -10 16 -10 6 0 7 5 4 10 -3 6 -11 10 -16 10 -6
0 -7 -4 -4 -10z"/>
<path d="M2053 1756 c4 -10 7 -22 7 -27 0 -4 6 -6 13 -3 8 3 14 -2 14 -10 0
-10 -10 -14 -29 -14 -15 1 -28 7 -28 13 0 13 -22 25 -43 25 -7 0 -3 -7 7 -15
12 -9 15 -15 7 -15 -8 0 -11 -6 -7 -16 3 -8 2 -13 -3 -9 -5 3 -11 -1 -14 -7
-3 -9 -11 -6 -24 9 -11 13 -23 20 -27 16 -10 -10 -7 -25 4 -18 6 3 10 2 10 -4
0 -5 -12 -14 -27 -19 -27 -10 -27 -11 -6 -17 14 -5 20 -12 16 -23 -5 -11 -3
-13 8 -7 12 8 12 6 0 -8 -8 -10 -11 -21 -7 -25 4 -4 14 2 21 12 13 17 14 15 8
-18 -4 -23 -2 -36 6 -36 6 0 11 5 11 10 0 6 5 10 10 10 6 0 5 -8 -2 -20 -7
-11 -19 -20 -26 -20 -10 0 -9 -8 5 -30 23 -39 29 -38 29 6 0 23 6 39 17 45 23
13 21 35 -4 60 -11 11 -18 24 -14 27 3 4 9 1 13 -5 5 -8 14 -5 31 8 17 14 19
19 8 19 -9 0 -19 5 -23 12 -4 7 -3 8 5 4 6 -4 18 0 27 8 9 9 21 13 27 9 23
-14 56 -11 72 7 16 18 16 18 -4 13 -13 -3 -21 -1 -21 6 0 7 -5 9 -12 5 -6 -4
-8 -3 -4 4 3 6 -8 21 -26 33 -27 20 -31 20 -25 5z"/>
<path d="M3070 1764 c1 -5 15 -25 32 -44 l31 -35 -19 33 c-20 35 -44 61 -44
46z"/>
<path d="M847 1753 c-15 -15 -5 -23 26 -22 l32 2 -29 4 c-22 4 -26 7 -15 14 8
5 9 9 3 9 -6 0 -14 -3 -17 -7z"/>
<path d="M2020 1750 c0 -5 5 -10 11 -10 5 0 7 5 4 10 -3 6 -8 10 -11 10 -2 0
-4 -4 -4 -10z"/>
<path d="M2240 1756 c0 -2 8 -10 18 -17 15 -13 16 -12 3 4 -13 16 -21 21 -21
13z"/>
<path d="M754 1732 c-18 -14 -18 -14 -1 -8 10 3 25 6 33 6 8 0 14 4 14 8 0 14
-26 10 -46 -6z"/>
<path d="M810 1740 c0 -5 5 -10 10 -10 6 0 10 5 10 10 0 6 -4 10 -10 10 -5 0
-10 -4 -10 -10z"/>
<path d="M2120 1741 c0 -6 4 -13 10 -16 6 -3 7 1 4 9 -7 18 -14 21 -14 7z"/>
<path d="M1887 1733 c-4 -3 -7 -11 -7 -17 0 -6 5 -5 12 2 6 6 9 14 7 17 -3 3
-9 2 -12 -2z"/>
<path d="M2326 1731 c-3 -5 5 -8 18 -7 13 0 22 4 19 9 -6 10 -31 9 -37 -2z"/>
<path d="M937 1719 c7 -7 15 -10 18 -7 3 3 -2 9 -12 12 -14 6 -15 5 -6 -5z"/>
<path d="M1940 1726 c0 -2 7 -9 15 -16 9 -7 15 -8 15 -2 0 5 -7 12 -15 16 -8
3 -15 4 -15 2z"/>
<path d="M3460 1726 c0 -2 8 -10 18 -17 15 -13 16 -12 3 4 -13 16 -21 21 -21
13z"/>
<path d="M2316 1695 c-11 -8 -16 -18 -13 -22 4 -3 16 3 27 15 23 25 15 29 -14
7z"/>
<path d="M1730 1680 c0 -5 4 -10 9 -10 6 0 13 5 16 10 3 6 -1 10 -9 10 -9 0
-16 -4 -16 -10z"/>
<path d="M1830 1660 c-12 -8 -12 -10 3 -16 23 -8 21 -21 -4 -29 -11 -4 -18 -9
-15 -13 4 -3 -4 -16 -16 -29 -12 -13 -18 -23 -13 -23 4 0 0 -9 -10 -20 -10
-11 -18 -36 -19 -59 0 -22 -4 -37 -7 -35 -4 2 -9 -3 -13 -11 -3 -8 0 -15 7
-15 9 0 9 -2 0 -8 -7 -4 -9 -13 -4 -21 13 -20 27 15 36 89 5 41 39 107 53 102
6 -2 12 3 12 12 0 15 40 44 40 29 0 -4 4 -1 9 7 12 18 3 33 -15 26 -8 -3 -14
1 -14 9 0 17 -9 19 -30 5z"/>
<path d="M2139 1653 c-13 -16 -12 -17 4 -4 9 7 17 15 17 17 0 8 -8 3 -21 -13z"/>
<path d="M1760 1649 c0 -5 5 -7 10 -4 6 3 10 8 10 11 0 2 -4 4 -10 4 -5 0 -10
-5 -10 -11z"/>
<path d="M2165 1640 c3 -5 8 -10 11 -10 2 0 4 5 4 10 0 6 -5 10 -11 10 -5 0
-7 -4 -4 -10z"/>
<path d="M1787 1615 c-30 -29 -34 -37 -13 -29 13 5 52 54 44 54 -2 0 -16 -11
-31 -25z"/>
<path d="M2180 1611 c0 -7 -7 -11 -15 -8 -8 4 -17 2 -20 -4 -4 -5 -11 -7 -16
-4 -5 4 -9 -1 -9 -9 0 -9 -11 -18 -26 -22 -29 -7 -29 -37 0 -42 14 -3 17 1 12
15 -5 15 0 19 19 21 25 2 34 -11 15 -23 -5 -3 -10 -11 -10 -16 0 -6 4 -7 10
-4 13 8 52 97 45 103 -3 3 -5 0 -5 -7z"/>
<path d="M2041 1594 c0 -11 3 -14 6 -6 3 7 2 16 -1 19 -3 4 -6 -2 -5 -13z"/>
<path d="M2189 1568 c-12 -23 -12 -23 10 -4 23 21 26 26 11 26 -5 0 -15 -10
-21 -22z"/>
<path d="M1211 1561 c-9 -6 -10 -11 -2 -15 13 -8 31 1 31 15 0 11 -11 11 -29
0z"/>
<path d="M2030 1555 c-6 -8 -9 -19 -5 -24 3 -6 0 -8 -8 -5 -11 4 -16 -5 -19
-35 -2 -22 -2 -45 0 -50 6 -19 20 -12 24 12 2 12 8 21 14 20 6 -1 12 19 13 48
2 53 0 57 -19 34z"/>
<path d="M1251 1544 c0 -11 3 -14 6 -6 3 7 2 16 -1 19 -3 4 -6 -2 -5 -13z"/>
<path d="M2317 1544 c-11 -11 -8 -26 3 -19 6 3 10 1 10 -6 0 -7 3 -10 6 -6 3
3 2 13 -3 22 -5 8 -12 12 -16 9z"/>
<path d="M2281 1518 c-1 -21 15 -32 25 -17 4 7 3 9 -4 5 -6 -3 -13 2 -15 11
-4 16 -5 16 -6 1z"/>
<path d="M2915 1470 c9 -16 18 -30 21 -30 2 0 -2 14 -11 30 -9 17 -18 30 -21
30 -2 0 2 -13 11 -30z"/>
<path d="M2073 1474 c-3 -9 -6 -29 -7 -45 -1 -38 -26 -48 -27 -11 -1 18 -3 21
-6 9 -3 -11 -11 -16 -19 -13 -8 3 -14 -1 -14 -10 0 -8 4 -13 9 -10 5 4 6 -9 1
-29 -4 -19 -5 -35 -1 -35 3 0 -1 -4 -9 -10 -8 -5 -11 -12 -8 -16 4 -3 16 9 27
27 11 19 31 45 45 59 37 37 58 82 43 92 -18 12 -27 10 -34 -8z"/>
<path d="M2360 1479 c0 -5 5 -7 10 -4 6 3 10 8 10 11 0 2 -4 4 -10 4 -5 0 -10
-5 -10 -11z"/>
<path d="M2140 1461 c0 -6 -10 -19 -22 -31 -21 -19 -23 -36 -3 -22 26 18 46
50 36 57 -6 3 -11 2 -11 -4z"/>
<path d="M2226 1453 c5 -5 12 -12 15 -16 3 -5 9 -2 12 7 5 12 0 16 -15 16 -12
0 -17 -3 -12 -7z"/>
<path d="M2280 1410 c-6 -11 -15 -18 -20 -15 -6 3 -7 0 -4 -8 4 -12 -9 -52
-34 -99 -2 -5 1 -8 7 -8 6 0 10 3 9 8 -2 12 14 42 21 38 3 -2 7 7 8 21 0 14
11 38 22 54 12 16 17 29 12 29 -6 0 -15 -9 -21 -20z"/>
<path d="M1771 1389 c-6 -17 -20 -33 -31 -36 -19 -5 -29 -33 -12 -33 16 0 72
73 72 94 0 19 -20 1 -29 -25z"/>
<path d="M2182 1393 c-12 -15 -22 -33 -22 -41 0 -7 -5 -10 -11 -7 -6 4 -13 -2
-16 -14 -5 -19 -15 -26 -36 -22 -5 1 -6 -3 -2 -9 4 -6 -4 -19 -17 -30 -13 -11
-17 -19 -10 -18 22 5 78 62 74 76 -3 7 1 12 8 10 6 -2 17 6 23 17 7 11 15 22
18 25 6 6 20 40 16 40 -2 0 -13 -12 -25 -27z"/>
<path d="M2072 1360 c-12 -16 -22 -32 -22 -35 0 -2 -12 -16 -25 -29 -28 -28
-33 -48 -9 -39 8 3 13 12 10 19 -3 8 -1 14 4 14 11 0 74 89 68 96 -3 2 -14
-10 -26 -26z"/>
<path d="M1907 1366 c-4 -10 -7 -18 -7 -19 0 -1 11 -3 25 -3 14 -1 25 2 25 7
0 5 -6 9 -14 9 -8 0 -16 5 -18 12 -3 7 -7 5 -11 -6z"/>
<path d="M2211 1337 c-13 -21 -12 -21 5 -5 10 10 16 20 13 22 -3 3 -11 -5 -18
-17z"/>
<path d="M2337 1336 c-10 -8 -14 -16 -10 -19 5 -3 14 3 21 14 14 22 13 23 -11
5z"/>
<path d="M1936 1322 c-3 -6 -1 -14 5 -17 14 -9 20 -2 10 14 -6 8 -11 9 -15 3z"/>
<path d="M2280 1326 c0 -2 7 -7 16 -10 8 -3 12 -2 9 4 -6 10 -25 14 -25 6z"/>
<path d="M2180 1285 c-12 -13 -26 -22 -31 -20 -4 3 -11 0 -15 -6 -4 -8 -3 -9
4 -5 8 5 12 0 12 -13 0 -24 -41 -56 -51 -40 -4 7 -9 4 -14 -10 -3 -11 -3 -26
1 -32 4 -7 3 -9 -4 -5 -6 3 -13 2 -17 -4 -3 -5 -1 -11 4 -11 20 -3 26 -4 37
-11 11 -7 34 13 48 42 4 8 -4 2 -18 -15 -36 -42 -34 -9 3 35 26 32 76 120 68
120 -2 0 -14 -11 -27 -25z"/>
<path d="M2255 1300 c-3 -5 -1 -10 4 -10 6 0 11 5 11 10 0 6 -2 10 -4 10 -3 0
-8 -4 -11 -10z"/>
<path d="M2313 1278 c-2 -18 0 -20 7 -8 12 18 13 30 2 30 -4 0 -9 -10 -9 -22z"/>
<path d="M2231 1237 c-6 -8 -8 -17 -4 -20 3 -4 1 -7 -5 -7 -7 0 -12 -8 -12
-17 0 -15 2 -15 13 2 15 22 29 55 23 55 -2 0 -9 -6 -15 -13z"/>
<path d="M2115 1231 c-3 -5 -1 -12 5 -16 5 -3 10 1 10 9 0 18 -6 21 -15 7z"/>
<path d="M2005 1210 c-10 -11 -14 -20 -9 -20 5 0 15 9 22 20 7 11 11 20 9 20
-2 0 -12 -9 -22 -20z"/>
<path d="M2279 1213 c-13 -16 -12 -17 4 -4 16 13 21 21 13 21 -2 0 -10 -8 -17
-17z"/>
<path d="M2345 1211 c-3 -5 -2 -12 3 -15 5 -3 9 1 9 9 0 17 -3 19 -12 6z"/>
<path d="M2280 1187 c-20 -16 -24 -38 -5 -31 15 6 19 -4 15 -41 -3 -29 15 -8
29 34 9 27 8 36 -1 43 -17 10 -20 10 -38 -5z m30 -19 c0 -19 -2 -20 -10 -8
-13 19 -13 30 0 30 6 0 10 -10 10 -22z"/>
<path d="M1970 1152 l-12 -27 24 20 c12 11 24 20 26 21 2 1 -4 4 -11 7 -9 3
-19 -5 -27 -21z"/>
<path d="M2355 1130 c3 -5 8 -10 11 -10 2 0 4 5 4 10 0 6 -5 10 -11 10 -5 0
-7 -4 -4 -10z"/>
<path d="M2335 1110 c-3 -5 -1 -10 4 -10 6 0 11 5 11 10 0 6 -2 10 -4 10 -3 0
-8 -4 -11 -10z"/>
<path d="M2040 1095 c-7 -9 -11 -18 -8 -20 3 -3 11 1 18 10 7 9 11 18 8 20 -3
3 -11 -1 -18 -10z"/>
<path d="M2245 1090 c-3 -5 -1 -10 4 -10 6 0 11 5 11 10 0 6 -2 10 -4 10 -3 0
-8 -4 -11 -10z"/>
<path d="M2257 1055 c-9 -19 -15 -35 -12 -35 7 0 37 61 33 66 -3 2 -12 -12
-21 -31z"/>
<path d="M2321 1072 c-8 -14 -6 -19 5 -19 7 0 14 9 14 19 0 10 -2 18 -5 18 -2
0 -9 -8 -14 -18z"/>
<path d="M2107 1053 c-4 -3 -7 -11 -7 -17 0 -6 5 -5 12 2 6 6 9 14 7 17 -3 3
-9 2 -12 -2z"/>
<path d="M2220 979 c0 -5 5 -7 10 -4 6 3 10 8 10 11 0 2 -4 4 -10 4 -5 0 -10
-5 -10 -11z"/>
<path d="M1800 1280 c0 -5 5 -10 11 -10 5 0 7 5 4 10 -3 6 -8 10 -11 10 -2 0
-4 -4 -4 -10z"/>
</g>
</svg>
